<svg xmlns="http://www.w3.org/2000/svg" width="100" height="100" fill="none">
  <g clip-path="url(#a)">
    <path fill="#fff" d="M100 0H0v100h100V0Z" opacity=".01"/>
    <path fill="#000" fill-rule="evenodd" d="M84.46 13.591v.003c.763 16.87-4.126 30.027-14.521 39.12.324 1.397 1.393 7.33-2.655 11.564a144.985 144.985 0 0 1-4.442 4.47 2.497 2.497 0 0 1-2.197.662 2.5 2.5 0 0 1-1.826-1.39l-3.302-6.854a41.292 41.292 0 0 1-8.7 2.268l-.24.028-12.4-12.369.026-.24a41.385 41.385 0 0 1 2.257-8.742c-.876-.376-2.737-1.266-6.87-3.243l-.007-.004a2.525 2.525 0 0 1-.74-4.02 145.421 145.421 0 0 1 4.458-4.455c4.223-4.06 10.16-3.007 11.556-2.687 9.072-10.43 22.23-15.359 39.125-14.632.022.004.044.01.065.016.17.02.316.135.375.296a.5.5 0 0 1 .02.09c.007.024.013.05.017.075v.037l.002.007Zm-15.522 38.73a.494.494 0 0 1 .14-.174c10.21-8.813 15.046-21.63 14.394-38.088-16.466-.601-29.262 4.267-38.046 14.502l-.017.02h-.001l-.003.002a.495.495 0 0 1-.16.12.432.432 0 0 1-.05.017.485.485 0 0 1-.143.03c-.008.001-.016.006-.024.006a.532.532 0 0 1-.063-.01.468.468 0 0 1-.068-.006c-.065-.018-6.61-1.757-10.902 2.37a144.047 144.047 0 0 0-4.427 4.424 1.524 1.524 0 0 0 .447 2.428l7.272 3.479.415.196-.16.431a43.193 43.193 0 0 0-2.314 8.662l11.71 11.68a43.202 43.202 0 0 0 8.655-2.34c.455-.106.455-.105 4.08 7.42l.047.096a1.525 1.525 0 0 0 2.43.44 143.703 143.703 0 0 0 4.412-4.44c4.115-4.304 2.356-10.843 2.338-10.91a.483.483 0 0 1-.01-.124l-.001-.021a.123.123 0 0 1-.002-.029.488.488 0 0 1 .043-.158c.004-.008.004-.016.008-.024Z" clip-rule="evenodd"/>
    <path fill="#000" fill-rule="evenodd" d="M53.445 36.594a7.797 7.797 0 0 1 7.798-7.797 7.806 7.806 0 0 1 7.797 7.797 7.797 7.797 0 0 1-15.595 0Zm1.518 2.601a6.797 6.797 0 0 0 6.28 4.196 6.805 6.805 0 0 0 6.797-6.797 6.797 6.797 0 1 0-13.077 2.601Z" clip-rule="evenodd"/>
    <path fill="#000" d="M38.82 65.771a.5.5 0 0 0-.514.858 6.395 6.395 0 0 1 2.923 5.396 8.547 8.547 0 0 1-2.49 5.87 12.834 12.834 0 0 1-5.71 3.288c-.952.276-1.954.475-2.922.667l-.807.162a65.53 65.53 0 0 0-10.441 3.063c-.131.05-.264.108-.396.172a1.52 1.52 0 0 1-1.376-.02 1.27 1.27 0 0 1-.677-.964 17.61 17.61 0 0 1 .22-5.947 26.019 26.019 0 0 1 3.423-8.311c.757-1.24.786-2.276.08-2.843a2.095 2.095 0 0 0-1.127-.379l-3.236-.37a1.77 1.77 0 0 1-.268-.044c-.003-.009-.026-.094.084-.382a13.639 13.639 0 0 1 6.348-7.633c3.139-1.536 7.07-.988 9.144 1.275a.5.5 0 0 0 .737-.676c-2.4-2.619-6.74-3.25-10.32-1.497a14.626 14.626 0 0 0-6.844 8.175c-.223.44-.19.968.086 1.378.244.245.573.387.919.397l3.236.37c.215.005.426.061.614.165.314.252.048.962-.307 1.543a27.021 27.021 0 0 0-3.55 8.634 18.618 18.618 0 0 0-.229 6.284c.1.728.545 1.363 1.195 1.706.361.192.765.293 1.175.292.383 0 .761-.086 1.107-.252a4.49 4.49 0 0 1 .322-.14A64.578 64.578 0 0 1 29.5 82.99l.802-.16c.989-.196 2.012-.4 3.007-.688a13.83 13.83 0 0 0 6.15-3.556 9.553 9.553 0 0 0 2.77-6.57 7.415 7.415 0 0 0-3.41-6.246Z"/>
  </g>
  <defs>
    <clipPath id="a">
      <path fill="#fff" d="M0 0h100v100H0z"/>
    </clipPath>
  </defs>
</svg>
