<svg xmlns="http://www.w3.org/2000/svg" width="60" height="60" fill="none">
  <path fill="#fff" fill-rule="evenodd" d="M25.898 41.453c10.566 0 16.344-8.848 16.344-16.52 0-.252-.005-.502-.016-.75a11.759 11.759 0 0 0 2.866-3.007c-1.03.462-2.137.774-3.3.914a5.816 5.816 0 0 0 2.527-3.212 11.439 11.439 0 0 1-3.648 1.41 5.71 5.71 0 0 0-4.193-1.835c-3.173 0-5.746 2.6-5.746 5.806 0 .456.05.899.15 1.324-4.775-.243-9.009-2.553-11.841-6.067a5.834 5.834 0 0 0-.779 2.919 5.818 5.818 0 0 0 2.557 4.833 5.656 5.656 0 0 1-2.602-.727l-.001.074c0 2.813 1.98 5.16 4.609 5.693a5.703 5.703 0 0 1-2.595.1c.732 2.306 2.852 3.985 5.367 4.032a11.45 11.45 0 0 1-7.135 2.486c-.463 0-.92-.027-1.37-.08a16.137 16.137 0 0 0 8.806 2.607Z" clip-rule="evenodd"/>
</svg>
