<svg xmlns="http://www.w3.org/2000/svg" width="60" height="60" fill="none">
  <path fill="#fff" fill-rule="evenodd" d="M39.893 23.589v3.603h-3.699v2.522h3.699v3.605h2.773v-3.605h3.697v-2.613h-3.697V23.59h-2.773Zm-16.27 2.792v4.054h5.547c-.37 2.342-2.496 4.054-5.546 4.054-3.328 0-6.101-2.793-6.101-6.036 0-3.243 2.68-6.036 6.1-6.036 1.572 0 2.866.45 3.976 1.532l2.957-2.883c-1.848-1.622-4.16-2.613-6.932-2.613-5.639 0-10.26 4.505-10.26 10 0 5.496 4.621 10 10.26 10 6.008 0 9.89-4.144 9.89-9.82 0-.72-.092-1.531-.184-2.252h-9.706Z" clip-rule="evenodd"/>
</svg>
