<svg xmlns="http://www.w3.org/2000/svg" width="60" height="60" fill="none">
  <path fill="#fff" fill-rule="evenodd" d="M27.653 41.727h5.383v-8.592c0-2.265.43-4.459 3.234-4.459 2.763 0 2.8 2.59 2.8 4.605v8.446h5.385V32.2c0-4.675-1.007-8.272-6.464-8.272-2.621 0-4.379 1.439-5.098 2.805h-.072v-2.374h-5.168v17.368Zm-6.073-26a3.128 3.128 0 0 1 3.123 3.128c0 1.728-1.4 3.13-3.123 3.13a3.127 3.127 0 0 1-3.125-3.13 3.127 3.127 0 0 1 3.125-3.128Zm-2.696 26h5.389V24.359h-5.389v17.368Z" clip-rule="evenodd"/>
</svg>
