<svg xmlns="http://www.w3.org/2000/svg" width="120" height="40" fill="none">
  <g clip-path="url(#a)">
    <path fill="#151515" fill-rule="evenodd" d="M45.739 12.094h-6.177a.858.858 0 0 0-.848.724l-2.499 15.84a.515.515 0 0 0 .51.594h2.949a.858.858 0 0 0 .848-.725l.674-4.272a.858.858 0 0 1 .847-.726h1.955c4.07 0 6.418-1.968 7.031-5.87.276-1.708.012-3.049-.788-3.988-.878-1.032-2.435-1.577-4.502-1.577Zm.712 5.785c-.337 2.216-2.03 2.216-3.669 2.216h-.932l.654-4.14a.515.515 0 0 1 .509-.434h.427c1.116 0 2.168 0 2.712.636.324.38.423.943.3 1.722Zm14.794-.071h2.958a.513.513 0 0 1 .507.594l-1.599 10.124a.858.858 0 0 1-.848.725H59.6a.515.515 0 0 1-.508-.596l.132-.822s-1.46 1.694-4.094 1.694c-1.535 0-2.825-.443-3.726-1.505-.983-1.155-1.385-2.812-1.102-4.544.544-3.473 3.336-5.949 6.604-5.949 1.426 0 2.854.311 3.494 1.24l.207.3.13-.827a.515.515 0 0 1 .51-.434Zm-1.165 5.757c-.285 1.69-1.627 2.824-3.337 2.824-.86 0-1.546-.275-1.986-.797-.438-.519-.604-1.257-.465-2.079.267-1.675 1.63-2.847 3.315-2.847.84 0 1.523.28 1.973.806.45.532.63 1.274.5 2.093Zm16.905-5.757h2.972a.515.515 0 0 1 .423.808l-9.886 14.27a.857.857 0 0 1-.706.37H66.82a.515.515 0 0 1-.42-.813l3.078-4.346-3.274-9.608a.515.515 0 0 1 .489-.681h2.92a.86.86 0 0 1 .825.612l1.737 5.803 4.1-6.039a.862.862 0 0 1 .711-.376ZM109.215 28.659l2.536-16.13a.515.515 0 0 1 .507-.435h2.854a.513.513 0 0 1 .508.595l-2.5 15.839a.857.857 0 0 1-.848.725h-2.549a.514.514 0 0 1-.508-.594ZM89.799 12.095h-6.178a.858.858 0 0 0-.847.724l-2.498 15.84a.513.513 0 0 0 .508.594h3.17a.6.6 0 0 0 .592-.507l.71-4.49a.858.858 0 0 1 .847-.726h1.954c4.07 0 6.418-1.969 7.032-5.87.277-1.708.01-3.05-.789-3.988-.877-1.032-2.433-1.577-4.5-1.577Zm.713 5.785c-.337 2.216-2.03 2.216-3.669 2.216h-.931l.655-4.14a.513.513 0 0 1 .507-.434h.428c1.114 0 2.167 0 2.711.636.324.38.423.943.3 1.722Zm14.795-.072h2.956a.515.515 0 0 1 .511.595l-1.6 10.124a.858.858 0 0 1-.847.725h-2.664a.514.514 0 0 1-.509-.596l.132-.822s-1.461 1.694-4.095 1.694c-1.534 0-2.822-.443-3.726-1.505-.982-1.155-1.382-2.812-1.1-4.544.543-3.473 3.334-5.949 6.603-5.949 1.425 0 2.852.31 3.493 1.24l.207.3.131-.827a.513.513 0 0 1 .508-.434Zm-1.167 5.758c-.284 1.69-1.627 2.824-3.337 2.824-.858 0-1.546-.276-1.987-.797-.437-.519-.601-1.257-.464-2.079.268-1.675 1.63-2.847 3.315-2.847.84 0 1.523.28 1.973.806.452.532.631 1.274.5 2.093Z" clip-rule="evenodd"/>
    <path fill="#253B80" d="m10.563 32.33.473-3-1.052-.025H4.959L8.451 7.164a.285.285 0 0 1 .283-.242h8.473c2.812 0 4.753.585 5.767 1.74.475.542.777 1.109.924 1.732.153.654.156 1.435.006 2.388l-.01.07v.61l.474.27c.363.183.69.432.962.733.407.463.67 1.052.78 1.75.115.718.078 1.573-.11 2.54-.217 1.113-.568 2.082-1.04 2.875a5.914 5.914 0 0 1-1.65 1.806c-.628.447-1.375.785-2.22 1.002-.818.213-1.75.32-2.774.32h-.66a2 2 0 0 0-1.288.475 1.996 1.996 0 0 0-.672 1.2l-.05.27-.835 5.288-.038.194c-.01.061-.027.092-.052.113a.14.14 0 0 1-.087.032h-4.07Z"/>
    <path fill="#636363" d="M24.818 12.922c-.025.162-.054.327-.087.497-1.117 5.736-4.94 7.718-9.822 7.718h-2.485c-.597 0-1.1.433-1.193 1.022L9.958 30.23l-.36 2.288a.636.636 0 0 0 .627.736h4.409c.522 0 .966-.38 1.048-.895l.043-.224.83-5.267.053-.29a1.06 1.06 0 0 1 1.048-.895h.66c4.27 0 7.615-1.735 8.592-6.753.408-2.096.197-3.847-.883-5.078a4.216 4.216 0 0 0-1.207-.93Z"/>
    <path fill="#393939" d="M23.649 12.456a8.805 8.805 0 0 0-1.087-.241 13.808 13.808 0 0 0-2.19-.16H13.73c-.523 0-.967.38-1.047.896l-1.413 8.947-.04.261a1.207 1.207 0 0 1 1.193-1.022h2.485c4.882 0 8.705-1.983 9.822-7.718.033-.17.061-.335.087-.497a5.959 5.959 0 0 0-.919-.387 8.428 8.428 0 0 0-.25-.079Z"/>
    <path fill="#151515" d="M12.684 12.954c.08-.516.524-.897 1.046-.895h6.64c.788 0 1.522.051 2.192.16.454.071.9.178 1.338.319.33.109.636.238.918.387.333-2.12-.002-3.563-1.149-4.87C22.407 6.616 20.125 6 17.207 6H8.735a1.21 1.21 0 0 0-1.197 1.023L4.009 29.392a.728.728 0 0 0 .718.841h5.23l1.314-8.332 1.412-8.947Z"/>
    <path fill="#fff" d="M120 0H0v40h120V0Z" opacity=".01"/>
  </g>
  <defs>
    <clipPath id="a">
      <path fill="#fff" d="M0 0h120v40H0z"/>
    </clipPath>
  </defs>
</svg>
