<svg aria-hidden="true" style="position: absolute; width: 0; height: 0; overflow: hidden;" version="1.1" xmlns="http://www.w3.org/2000/svg" xmlns:xlink="http://www.w3.org/1999/xlink">
<defs>
<symbol id="icon-hamburger-menu" viewBox="0 0 32 32">
<path fill="#fff" style="fill: var(--color1, #fff)" opacity="0.01" d="M0.386 0h31.614v32h-31.614v-32z"></path>
<path fill="#151515" style="fill: var(--color2, #151515)" d="M24.705 12.923h-17.023v1.231h17.023v-1.231zM24.705 17.846h-17.023v1.231h17.023v-1.231z"></path>
</symbol>
<symbol id="icon-free-developer-icon" viewBox="0 0 32 32">
<path fill="#fff" style="fill: var(--color1, #fff)" opacity="0.01" d="M32 0h-32v32h32v-32z"></path>
<path fill="#000" style="fill: var(--color2, #000)" d="M17.71 7.655h-3.61c-0.088 0-0.16 0.072-0.16 0.16s0.072 0.16 0.16 0.16v0h3.61c0.088 0 0.16-0.072 0.16-0.16s-0.072-0.16-0.16-0.16v0z"></path>
<path fill="#000" style="fill: var(--color2, #000)" d="M23.666 20.767h2.899c0.795 0.001 1.439 0.645 1.44 1.44v3.235c-0.001 0.795-0.645 1.439-1.44 1.44h-6.565c-0.795-0.001-1.439-0.645-1.44-1.44v-3.235c0.001-0.795 0.645-1.439 1.44-1.44h3.346v-2.004c-0.001-0.618-0.502-1.119-1.12-1.12h-12.384c-0.618 0.001-1.119 0.502-1.12 1.12v2.004h3.123c0.795 0.001 1.439 0.645 1.44 1.44v3.235c-0.001 0.795-0.645 1.439-1.44 1.44h-6.565c-0.795-0.001-1.439-0.645-1.44-1.44v-3.235c0.001-0.795 0.645-1.439 1.44-1.44h3.122v-2.004c0.001-0.795 0.645-1.439 1.44-1.44h5.903v-3.322h-3.106c-0.795-0.001-1.439-0.645-1.44-1.44v-6.321c0.001-0.795 0.645-1.439 1.44-1.44h6.321c0.795 0.001 1.439 0.645 1.44 1.44v6.321c-0.001 0.795-0.645 1.439-1.44 1.44h-2.895v3.322h6.161c0.795 0.001 1.439 0.645 1.44 1.44v2.004zM12.965 22.207c-0.001-0.618-0.502-1.119-1.12-1.12h-6.565c-0.618 0.001-1.119 0.502-1.12 1.12v3.235c0.001 0.618 0.502 1.119 1.12 1.12h6.565c0.618-0.001 1.119-0.502 1.12-1.12v-3.235zM12.639 13.681h6.321c0.618-0.001 1.119-0.502 1.12-1.12v-6.321c-0.001-0.618-0.502-1.119-1.12-1.12h-6.321c-0.618 0.001-1.119 0.502-1.12 1.12v6.321c0.001 0.618 0.502 1.119 1.12 1.12zM26.565 26.562c0.618-0.001 1.119-0.502 1.12-1.12v-3.235c-0.001-0.618-0.502-1.119-1.12-1.12h-6.565c-0.618 0.001-1.119 0.502-1.12 1.12v3.235c0.001 0.618 0.502 1.119 1.12 1.12h6.565z"></path>
<path fill="#000" style="fill: var(--color2, #000)" d="M17.71 10.535h-3.61c-0.088 0-0.16 0.072-0.16 0.16s0.072 0.16 0.16 0.16v0h3.61c0.088 0 0.16-0.072 0.16-0.16s-0.072-0.16-0.16-0.16v0zM25.088 23.665h-3.611c-0.088 0-0.16 0.072-0.16 0.16s0.072 0.16 0.16 0.16v0h3.611c0.088 0 0.16-0.072 0.16-0.16s-0.072-0.16-0.16-0.16v0zM6.757 23.985h3.611c0.088 0 0.16-0.072 0.16-0.16s-0.072-0.16-0.16-0.16v0h-3.611c-0.088 0-0.16 0.072-0.16 0.16s0.072 0.16 0.16 0.16v0z"></path>
</symbol>
</defs>
</svg>
