<svg xmlns="http://www.w3.org/2000/svg" width="86" height="40" fill="none">
  <g clip-path="url(#a)">
    <path fill="#151515" d="M36.586 31.664H30.15l4.026-24.89h6.435l-4.025 24.89ZM59.915 7.38c-1.27-.504-3.283-1.06-5.772-1.06-6.356 0-10.831 3.39-10.859 8.235-.053 3.575 3.204 5.56 5.64 6.752 2.49 1.218 3.337 2.014 3.337 3.1-.026 1.667-2.012 2.435-3.865 2.435-2.57 0-3.946-.396-6.039-1.324l-.847-.397-.9 5.587c1.509.688 4.29 1.298 7.177 1.325 6.753 0 11.15-3.337 11.201-8.5.026-2.834-1.694-5.005-5.402-6.78-2.25-1.138-3.63-1.906-3.63-3.071.027-1.06 1.167-2.145 3.708-2.145 2.092-.053 3.63.45 4.794.953l.582.265.875-5.375Z"/>
    <path fill="#151515" fill-rule="evenodd" d="M71.435 6.773h4.978l5.192 24.89h-5.959s-.583-2.86-.768-3.733h-8.263l-1.35 3.733h-6.753l9.56-22.824c.662-1.616 1.828-2.066 3.363-2.066Zm-.397 9.109S69 21.416 68.47 22.846h5.35a2153.7 2153.7 0 0 1-1.484-7.202l-.45-2.145c-.19.552-.463 1.311-.648 1.824-.125.347-.21.58-.199.559Z" clip-rule="evenodd"/>
    <path fill="#151515" d="m24.774 6.773-6.303 16.973-.688-3.442c-1.166-3.972-4.82-8.287-8.898-10.433l5.773 21.766h6.806L31.58 6.773h-6.806Z"/>
    <path fill="#151515" d="M12.619 6.773H2.264l-.106.503c8.077 2.066 13.427 7.045 15.625 13.029l-2.251-11.44c-.37-1.589-1.51-2.04-2.913-2.092Z"/>
    <path fill="#fff" fill-rule="evenodd" d="M0 0h86v40H0V0Z" clip-rule="evenodd" opacity=".01"/>
  </g>
  <defs>
    <clipPath id="a">
      <path fill="#fff" d="M0 0h86v40H0z"/>
    </clipPath>
  </defs>
</svg>
